<mxfile host="app.diagrams.net" modified="2023-09-04T14:11:20.141Z" agent="Mozilla/5.0 (Windows NT 10.0; Win64; x64) AppleWebKit/537.36 (KHTML, like Gecko) Chrome/116.0.0.0 Safari/537.36 Edg/116.0.1938.69" version="21.7.2" etag="er9jozA_mn5-4zchXyO1" type="github">
  <diagram name="第 1 页" id="dqpFbi9YqzajaBByX0e_">
    <mxGraphModel>
      <root>
        <mxCell id="0" />
        <mxCell id="1" parent="0" />
      </root>
    </mxGraphModel>
  </diagram>
</mxfile>
